# xmcd CD database file
#
# Track frame offsets:
#	150
#	13362
#	23332
#	36897
#	49505
#	60532
#	74035
#	84482
#	96600
#	108652
#	121317
#	132320
#
# Disc length: 1903 seconds
#
# Revision: 0
# Processed by: cddbd v1.5PL3 Copyright (c) Steve Scherf et al.
# Submitted via: CDex 1.50
#
DISCID=a7076d0c
DTITLE=Piano Red - Dr. Feelgood
DYEAR=1900
DGENRE=Blues
TTITLE0=Dr. feelgood
TTITLE1=Boogie Time
TTITLE2=Low Down Dog Blues
TTITLE3=Jump Man Jump
TTITLE4=Coochi
TTITLE5=I Know You Care For Me
TTITLE6=Think She Ain't
TTITLE7=We'll Have a Good Time Tonight
TTITLE8=Please Dont Talk About Me When I'm Gone
TTITLE9=Comin' On
TTITLE10=Let's Fall In Love
TTITLE11=Barrelhouse Boogie
EXTD=
EXTT0=
EXTT1=
EXTT2=
EXTT3=
EXTT4=
EXTT5=
EXTT6=
EXTT7=
EXTT8=
EXTT9=
EXTT10=
EXTT11=
PLAYORDER=
